<?xml version="1.0" standalone="no"?>
<!DOCTYPE svg PUBLIC "-//W3C//DTD SVG 20010904//EN"
 "http://www.w3.org/TR/2001/REC-SVG-20010904/DTD/svg10.dtd">
<svg version="1.0" xmlns="http://www.w3.org/2000/svg"
 width="684.000000pt" height="165.000000pt" viewBox="0 0 684.000000 165.000000"
 preserveAspectRatio="xMidYMid meet">

<g transform="translate(0.000000,165.000000) scale(0.100000,-0.100000)"
fill="#000000" stroke="none">
<path fill="#02295c" d="M1960 865 l0 -475 115 0 115 0 0 190 0 190 235 0 235 0 2 -187 3
-188 118 -3 117 -3 0 476 0 476 -117 -3 -118 -3 -3 -187 -2 -188 -235 0 -235
0 0 190 0 190 -115 0 -115 0 0 -475z"/>
<path  fill="#e72419" d="M290 850 l0 -360 55 0 55 0 0 360 0 360 -55 0 -55 0 0 -360z"/>
<path  fill="#e72419" d="M1054 1201 c-104 -27 -198 -104 -242 -199 -23 -49 -27 -70 -27 -152
1 -83 4 -102 27 -150 45 -91 128 -164 218 -191 24 -8 79 -35 123 -61 76 -45
165 -80 237 -92 33 -6 40 -2 80 40 l45 47 -32 -6 c-19 -4 -64 2 -107 13 -75
19 -144 49 -116 50 8 0 40 12 70 26 139 64 220 204 207 356 -11 131 -85 237
-203 293 -49 24 -74 29 -154 31 -52 2 -109 0 -126 -5z m245 -117 c247 -134
144 -504 -140 -504 -171 0 -294 134 -275 299 9 76 51 148 110 189 64 43 98 52
182 48 55 -2 82 -9 123 -32z"/>
<path fill="#02295c" d="M3543 1196 c-103 -34 -176 -98 -222 -196 -22 -47 -26 -69 -26 -150 0
-88 3 -101 33 -162 59 -121 161 -186 305 -195 251 -16 430 149 415 382 -9 133
-83 242 -204 300 -51 25 -73 29 -159 32 -65 2 -115 -2 -142 -11z m248 -103
c53 -24 102 -71 131 -127 17 -31 22 -59 22 -116 1 -66 -3 -82 -30 -130 -106
-187 -384 -187 -488 0 -42 75 -43 169 -3 252 63 128 229 182 368 121z"/>
<path fill="#02295c" d="M4310 1165 l0 -45 120 0 120 0 0 -310 0 -310 50 0 50 0 2 308 3 307
123 3 122 3 0 44 0 45 -295 0 -295 0 0 -45z"/>
<path fill="#02295c" d="M5260 850 l0 -350 205 0 205 0 0 45 0 45 -155 0 -155 0 0 110 0 110
145 0 145 0 0 45 0 45 -145 0 -145 0 0 110 0 110 150 0 150 0 0 40 0 40 -200
0 -200 0 0 -350z"/>
<path fill="#02295c" d="M6040 850 l0 -350 210 0 210 0 0 45 0 45 -160 0 -160 0 0 305 0 305
-50 0 -50 0 0 -350z"/>
</g>
</svg>
